<?xml version="1.0" encoding="UTF-8" standalone="no"?>
<svg width="600" height="400" viewBox="0 0 600 400" fill="none" xmlns="http://www.w3.org/2000/svg">
  <rect width="600" height="400" fill="#1E293B"/>
  <rect x="50" y="50" width="500" height="300" rx="10" fill="#334155"/>
  <rect x="80" y="80" width="440" height="60" rx="5" fill="#4A6FA5"/>
  <rect x="80" y="160" width="200" height="160" rx="5" fill="#4FC3F7"/>
  <rect x="300" y="160" width="220" height="30" rx="5" fill="#94A3B8"/>
  <rect x="300" y="200" width="220" height="10" rx="5" fill="#94A3B8"/>
  <rect x="300" y="220" width="180" height="10" rx="5" fill="#94A3B8"/>
  <rect x="300" y="240" width="200" height="10" rx="5" fill="#94A3B8"/>
  <rect x="300" y="260" width="160" height="10" rx="5" fill="#94A3B8"/>
  <rect x="300" y="280" width="190" height="10" rx="5" fill="#94A3B8"/>
  <rect x="300" y="300" width="120" height="10" rx="5" fill="#94A3B8"/>
  <circle cx="550" cy="50" r="30" fill="#4FC3F7" fill-opacity="0.3"/>
  <circle cx="50" cy="350" r="40" fill="#4A6FA5" fill-opacity="0.3"/>
</svg>
